<svg xmlns="http://www.w3.org/2000/svg" width="512" height="512" viewBox="0 0 512 512" version="1.1"><path d="" stroke="none" fill="#e5bc42" fill-rule="evenodd"/><path d="M 238.834 8.499 C 238.617 8.717, 236.203 9.091, 233.469 9.331 C 229.505 9.679, 214.898 12.442, 206 14.527 C 200.628 15.785, 185.049 21.451, 180.123 23.938 C 176.888 25.571, 173.962 26.628, 173.620 26.287 C 173.279 25.946, 173 26.218, 173 26.892 C 173 27.566, 172.550 27.840, 172 27.500 C 171.450 27.160, 171 27.385, 171 28 C 171 28.615, 170.550 28.840, 170 28.500 C 169.450 28.160, 169 28.350, 169 28.922 C 169 29.494, 167.875 30.244, 166.500 30.589 C 165.125 30.934, 164 31.516, 164 31.881 C 164 32.246, 162.313 33.435, 160.250 34.523 C 158.188 35.610, 155.628 37.288, 154.561 38.250 C 153.495 39.212, 152.290 40, 151.883 40 C 151.476 40, 150.548 40.563, 149.821 41.250 C 149.095 41.938, 145.125 45.161, 141 48.412 C 131.461 55.932, 119.581 68.062, 113.408 76.587 C 112.359 78.036, 111.029 79.734, 110.452 80.361 C 106.332 84.841, 95.072 104.198, 91.919 112.221 C 89.461 118.475, 87.156 123.876, 85.990 126.118 C 85.297 127.450, 83.648 132.686, 82.405 137.500 C 81.513 140.957, 77.832 158.014, 77.441 160.500 C 76.141 168.784, 76.834 183.119, 78.699 186.500 C 79.306 187.600, 80.029 189.850, 80.307 191.500 C 80.585 193.150, 81.269 196.525, 81.827 199 C 84.333 210.120, 79.021 229.160, 71.014 237.754 C 69.906 238.944, 69 240.399, 69 240.990 C 69 241.580, 68.325 242.322, 67.500 242.638 C 66.675 242.955, 66 243.691, 66 244.273 C 66 244.856, 65.327 246.045, 64.504 246.916 C 63.681 247.787, 61.464 250.300, 59.576 252.500 C 57.689 254.700, 55.297 257.484, 54.260 258.687 C 53.223 259.889, 51.503 262.077, 50.438 263.547 C 49.372 265.018, 47.938 266.815, 47.250 267.539 C 46.563 268.264, 46 269.339, 46 269.929 C 46 270.518, 45.599 271, 45.108 271 C 44.618 271, 43.934 272.125, 43.589 273.500 C 43.244 274.875, 42.494 276, 41.922 276 C 41.350 276, 41.160 276.450, 41.500 277 C 41.840 277.550, 41.615 278, 41 278 C 40.385 278, 40.141 278.419, 40.457 278.931 C 40.774 279.443, 40.640 280.105, 40.160 280.401 C 38.210 281.606, 39.612 295.083, 42.095 299 C 42.618 299.825, 43.939 301.893, 45.030 303.595 C 46.656 306.131, 55.304 312.023, 58.250 312.603 C 58.663 312.684, 59.225 312.863, 59.500 313 C 59.775 313.137, 60.450 313.363, 61 313.500 C 61.550 313.637, 62.225 313.863, 62.500 314 C 62.775 314.137, 63.450 314.363, 64 314.500 C 64.550 314.637, 65.112 314.841, 65.250 314.952 C 65.388 315.062, 66.323 315.309, 67.328 315.499 C 70.782 316.154, 71.965 316.927, 71.483 318.212 C 71.217 318.920, 70.802 320.850, 70.560 322.500 C 70.317 324.150, 69.828 327.075, 69.471 329 C 68.669 333.332, 68.688 342.334, 69.509 347 C 69.847 348.925, 70.281 351.400, 70.472 352.500 C 70.663 353.600, 71.080 355.625, 71.398 357 C 71.716 358.375, 72.364 361.300, 72.838 363.500 C 73.311 365.700, 74.438 369.235, 75.342 371.356 C 76.247 373.477, 76.757 375.584, 76.477 376.037 C 76.197 376.491, 76.396 377.127, 76.920 377.451 C 78.122 378.193, 78.284 379.815, 78.022 388.500 C 77.404 409.018, 77.899 415.968, 80.174 418.709 C 80.763 419.419, 80.933 420, 80.551 420 C 80.169 420, 80.564 420.707, 81.429 421.571 C 82.293 422.436, 83 423.786, 83 424.571 C 83 425.357, 83.450 426, 84 426 C 84.550 426, 85.007 426.563, 85.016 427.250 C 85.030 428.413, 92.077 435.587, 96.558 439 C 98.397 440.401, 105.574 444.132, 107.250 444.559 C 107.662 444.664, 108.225 444.863, 108.500 445 C 108.775 445.137, 109.450 445.363, 110 445.500 C 110.550 445.637, 111.112 445.843, 111.250 445.957 C 111.388 446.071, 112.850 446.350, 114.500 446.576 C 116.150 446.803, 120.058 447.458, 123.184 448.031 C 132.271 449.699, 136.024 450.089, 144 450.196 C 148.125 450.251, 151.932 450.539, 152.459 450.836 C 152.987 451.133, 155.338 451.259, 157.685 451.114 C 160.031 450.970, 162.504 451.194, 163.180 451.611 C 164.512 452.434, 165.460 452.513, 177.583 452.805 C 183.246 452.942, 185.683 453.374, 185.720 454.250 C 185.749 454.938, 186.100 457.075, 186.499 459 C 187.594 464.286, 188.117 467.240, 188.445 470 C 188.608 471.375, 188.851 472.500, 188.985 472.500 C 189.119 472.500, 189.377 473.625, 189.559 475 C 192.777 499.343, 201.625 507.901, 219 503.479 C 220.375 503.129, 222.400 502.692, 223.500 502.509 C 224.600 502.326, 227.564 501.701, 230.088 501.121 C 232.611 500.540, 236.602 499.822, 238.957 499.526 C 241.312 499.231, 245.997 498.352, 249.369 497.573 C 252.741 496.795, 257.525 495.876, 260 495.532 C 262.475 495.188, 265.850 494.488, 267.500 493.977 C 269.150 493.465, 272.300 492.785, 274.500 492.465 C 283.310 491.185, 289.591 489.997, 297.500 488.118 C 299.700 487.595, 303.300 486.885, 305.500 486.539 C 307.700 486.193, 310.400 485.728, 311.500 485.505 C 312.600 485.282, 314.850 484.859, 316.500 484.564 C 318.150 484.270, 323.734 483.119, 328.909 482.006 C 334.084 480.894, 338.542 480.209, 338.817 480.483 C 339.091 480.758, 339.873 480.521, 340.553 479.956 C 341.233 479.392, 342.174 479.031, 342.645 479.155 C 343.115 479.279, 344.850 479.078, 346.500 478.708 C 348.150 478.337, 351.037 477.782, 352.916 477.474 C 354.795 477.165, 356.609 476.741, 356.949 476.532 C 357.288 476.322, 359.576 475.898, 362.033 475.590 C 367.092 474.955, 371.788 474.129, 374 473.484 C 374.825 473.244, 377.300 472.782, 379.500 472.458 C 394.168 470.296, 398.807 465.403, 399.530 451.327 C 400.757 427.457, 401.149 421.568, 401.554 420.912 C 401.805 420.507, 402.239 417.021, 402.520 413.166 C 402.801 409.311, 403.494 403.984, 404.060 401.329 C 404.626 398.673, 405.118 395.825, 405.155 395 C 405.191 394.175, 405.661 391.475, 406.199 389 C 407.310 383.885, 407.640 382.086, 408.466 376.611 C 408.789 374.472, 409.358 372.230, 409.729 371.629 C 410.101 371.027, 410.499 369.852, 410.613 369.018 C 410.727 368.183, 411.078 366.375, 411.393 365 C 411.709 363.625, 412.256 361.150, 412.611 359.500 C 412.965 357.850, 413.717 355.375, 414.281 354 C 414.845 352.625, 415.429 350.902, 415.577 350.172 C 415.725 349.441, 416.173 348.091, 416.573 347.172 C 416.973 346.252, 417.457 344.697, 417.649 343.717 C 417.841 342.736, 418.651 340.936, 419.450 339.717 C 420.249 338.497, 420.924 337.163, 420.951 336.750 C 420.978 336.337, 421.056 335.775, 421.125 335.500 C 421.194 335.225, 421.326 334.663, 421.420 334.250 C 422.125 331.129, 424.579 326, 425.368 326 C 425.899 326, 426.053 325.719, 425.710 325.376 C 425.012 324.678, 428.737 316.842, 430.220 315.888 C 430.743 315.552, 431.091 315.102, 430.993 314.888 C 430.608 314.048, 433.375 309, 434.220 309 C 434.714 309, 434.882 308.618, 434.594 308.151 C 434.305 307.685, 434.927 306.383, 435.974 305.258 C 437.022 304.133, 437.607 302.940, 437.273 302.606 C 436.940 302.273, 437.139 302, 437.717 302 C 438.295 302, 439.772 299.525, 441 296.500 C 442.228 293.475, 443.657 291, 444.175 291 C 444.694 291, 444.864 290.588, 444.553 290.085 C 444.242 289.582, 444.344 289.020, 444.779 288.835 C 445.465 288.545, 458.361 263.349, 458.514 262 C 458.545 261.725, 459.133 260.488, 459.821 259.250 C 460.508 258.012, 460.814 257, 460.500 257 C 460.186 257, 460.492 255.988, 461.179 254.750 C 461.867 253.512, 462.484 252.275, 462.551 252 C 462.618 251.725, 463.006 250.748, 463.413 249.828 C 463.821 248.909, 464.245 247.559, 464.355 246.828 C 464.466 246.098, 464.908 244.938, 465.337 244.250 C 465.767 243.563, 465.878 243, 465.584 243 C 465.290 243, 465.528 241.762, 466.114 240.250 C 467.114 237.666, 467.460 236.418, 468.543 231.500 C 470.869 220.938, 471.450 213.780, 471.462 195.500 C 471.469 186.074, 470.922 175.604, 470.234 172 C 469.552 168.425, 468.754 164.224, 468.461 162.663 C 467.094 155.371, 461.519 137.237, 458.553 130.432 C 454.327 120.739, 450.419 112.585, 449.500 111.546 C 447.854 109.685, 445.980 106.613, 445.354 104.750 C 445.031 103.788, 444.369 103, 443.883 103 C 443.398 103, 443 102.362, 443 101.583 C 443 100.804, 442.663 100.017, 442.250 99.833 C 441.837 99.650, 440.370 97.856, 438.988 95.847 C 432.013 85.702, 414.417 67.491, 403.606 59.229 C 400.248 56.662, 396.905 53.986, 396.179 53.281 C 395.452 52.577, 394.552 51.999, 394.179 51.998 C 393.805 51.996, 391.966 50.684, 390.090 49.081 C 388.215 47.478, 385.515 45.590, 384.090 44.884 C 382.666 44.179, 380.150 42.644, 378.500 41.473 C 375.333 39.226, 373.081 38.006, 361 31.992 C 352.070 27.546, 343.681 23.755, 340 22.503 C 339.725 22.409, 338.185 21.789, 336.578 21.125 C 333.770 19.966, 321.725 16.431, 314 14.500 C 308.562 13.141, 307.241 12.866, 304 12.424 C 302.075 12.161, 299.700 11.699, 298.722 11.397 C 297.743 11.094, 295.493 10.620, 293.722 10.343 C 291.950 10.066, 289.150 9.623, 287.500 9.359 C 283.700 8.751, 239.365 7.968, 238.834 8.499 M 260 55.297 C 259.725 55.582, 255.564 56.065, 250.753 56.371 C 245.942 56.677, 241.095 57.414, 239.982 58.010 C 238.869 58.605, 237.547 58.838, 237.043 58.527 C 236.540 58.216, 234.187 58.435, 231.814 59.015 C 229.441 59.594, 226.486 60.267, 225.247 60.510 C 224.008 60.753, 221.758 61.193, 220.247 61.489 C 218.736 61.785, 215.458 62.193, 212.962 62.395 C 208.121 62.787, 198 66.662, 198 68.123 C 198 68.605, 197.387 69, 196.637 69 C 195.887 69, 193.214 71.202, 190.697 73.893 C 188.179 76.584, 185.878 78.545, 185.583 78.250 C 185.288 77.955, 184.764 78.451, 184.419 79.351 C 184.073 80.252, 183.384 80.738, 182.888 80.431 C 182.392 80.124, 181.717 80.574, 181.388 81.431 C 181.059 82.288, 180.424 82.762, 179.976 82.485 C 179.528 82.208, 178.504 82.639, 177.700 83.443 C 176.896 84.247, 175.960 84.626, 175.619 84.286 C 175.279 83.945, 175 84.218, 175 84.892 C 175 85.566, 174.547 85.838, 173.993 85.496 C 173.439 85.153, 172.717 85.574, 172.388 86.431 C 172.059 87.288, 171.375 87.732, 170.868 87.418 C 170.360 87.104, 168.526 88.345, 166.792 90.174 C 165.058 92.003, 164.008 92.825, 164.458 92 C 164.907 91.175, 162.089 93.613, 158.194 97.418 C 154.299 101.222, 151.180 104.597, 151.263 104.918 C 151.346 105.238, 149.973 107.008, 148.211 108.852 C 146.449 110.695, 145.257 112.608, 145.563 113.102 C 145.868 113.596, 145.618 114, 145.007 114 C 143.919 114, 141.353 119.770, 141.782 121.250 C 141.902 121.662, 141.595 122, 141.100 122 C 138.485 122, 136.782 140.038, 138.268 152 C 138.643 155.025, 138.950 158.929, 138.949 160.675 C 138.948 162.421, 139.417 164.139, 139.990 164.494 C 140.563 164.848, 140.762 165.577, 140.430 166.113 C 140.099 166.649, 140.278 167.630, 140.829 168.294 C 141.379 168.957, 141.833 169.950, 141.837 170.500 C 141.854 172.670, 144.372 179, 145.219 179 C 145.714 179, 145.840 179.450, 145.500 180 C 145.160 180.550, 145.359 181, 145.941 181 C 146.523 181, 147 181.633, 147 182.407 C 147 184.841, 160.677 196.132, 163.490 196.020 C 163.770 196.009, 164.225 196.056, 164.500 196.125 C 164.775 196.194, 165.450 196.363, 166 196.500 C 166.550 196.637, 167.113 196.841, 167.250 196.952 C 167.586 197.222, 169.300 197.643, 177.164 199.384 C 186.581 201.469, 193.674 205.713, 194.447 209.725 C 195.096 213.095, 199.189 220.004, 201.714 221.989 C 204.736 224.367, 217.601 230.572, 220 230.810 C 220.275 230.837, 221.850 231.381, 223.500 232.019 C 225.150 232.656, 227.287 233.363, 228.250 233.589 C 229.213 233.815, 231.012 234.242, 232.250 234.539 C 238.551 236.048, 243.481 236.500, 253.617 236.500 C 264.735 236.500, 264.735 236.500, 264.361 240.335 C 264.039 243.650, 264.421 244.531, 267.185 246.835 C 275.866 254.072, 289.542 270.744, 291.648 276.657 C 292.009 277.671, 292.902 279.201, 293.634 280.058 C 295.272 281.979, 304 302.647, 304 304.607 C 304 310.178, 311.079 316, 317.852 316 C 326.016 316, 328.291 313.083, 325.140 306.653 C 323.280 302.858, 322.180 300.161, 321.407 297.500 C 319.416 290.645, 318.130 283.249, 318.060 278.250 C 318.017 275.211, 317.583 274, 316.535 274 C 309.376 274, 290.874 253.427, 288.342 242.652 C 286.251 233.754, 286.613 231, 289.873 231 C 292.598 231, 293.011 231.354, 293.082 233.750 C 293.226 238.566, 294.056 242.155, 295.552 244.440 C 296.352 245.661, 296.705 246.961, 296.337 247.330 C 295.968 247.698, 296.192 248, 296.833 248 C 297.475 248, 298 248.698, 298 249.550 C 298 271.544, 376.664 283.893, 380.489 262.500 C 380.686 261.400, 380.939 260.500, 381.051 260.500 C 381.163 260.500, 381.401 259.600, 381.578 258.500 C 383.089 249.148, 386.061 244.894, 392.872 242.331 C 398.759 240.116, 406.775 235.024, 410 231.449 C 411.375 229.924, 411.825 229.008, 411 229.413 C 410.175 229.817, 410.400 229.408, 411.500 228.504 C 412.600 227.599, 413.387 226.441, 413.250 225.929 C 413.112 225.418, 413.477 225, 414.059 225 C 414.641 225, 414.840 224.550, 414.500 224 C 414.160 223.450, 414.385 223, 415 223 C 415.615 223, 415.840 222.550, 415.500 222 C 415.160 221.450, 415.434 221, 416.108 221 C 416.782 221, 417.037 220.704, 416.675 220.342 C 416.313 219.980, 416.424 219.193, 416.920 218.592 C 418.996 216.080, 420.439 200.053, 420.484 179 C 420.503 170.229, 419.702 165.534, 416.912 158.054 C 413.534 148.995, 412.325 147.092, 403.218 136.506 C 401.613 134.641, 397.863 126, 398.658 126 C 398.981 126, 398.744 125.396, 398.131 124.658 C 397.519 123.920, 397.313 123.020, 397.675 122.658 C 398.037 122.296, 397.808 122, 397.167 122 C 396.525 122, 396 121.531, 396 120.958 C 396 119.712, 394.730 118.043, 389.773 112.773 C 387.723 110.594, 385.127 107.323, 384.003 105.505 C 382.879 103.686, 381.265 101.932, 380.416 101.606 C 379.568 101.281, 379.118 100.618, 379.418 100.133 C 379.717 99.648, 378.867 98.070, 377.529 96.626 C 376.191 95.182, 375.322 94, 375.599 94 C 375.875 94, 374.904 92.429, 373.440 90.510 C 371.975 88.590, 370.308 87.310, 369.734 87.664 C 369.160 88.019, 368.975 87.850, 369.322 87.288 C 369.669 86.727, 369.063 85.462, 367.976 84.479 C 366.889 83.495, 366 82.940, 366 83.246 C 366 83.552, 364.604 82.499, 362.898 80.905 C 361.192 79.311, 359.440 78.228, 359.003 78.498 C 358.567 78.768, 357.927 78.252, 357.581 77.351 C 357.236 76.451, 356.691 75.976, 356.370 76.297 C 356.049 76.617, 354.843 76, 353.689 74.925 C 352.535 73.850, 351.124 73.125, 350.554 73.315 C 349.984 73.505, 348.915 73.058, 348.178 72.321 C 347.442 71.584, 346.425 71.237, 345.919 71.550 C 345.414 71.862, 345 71.724, 345 71.242 C 345 70.108, 334.273 66.713, 333.061 67.463 C 332.553 67.776, 331.873 67.604, 331.549 67.080 C 331.226 66.556, 330.182 66.150, 329.230 66.177 C 324.322 66.319, 308.343 63.964, 306.500 62.827 C 304.764 61.757, 295 59.082, 295 59.676 C 295 59.989, 294.379 59.730, 293.620 59.100 C 292.862 58.470, 290.274 57.702, 287.870 57.394 C 285.467 57.085, 282.150 56.632, 280.500 56.387 C 274.793 55.541, 260.498 54.781, 260 55.297 M 255.180 76.324 C 247.470 77.384, 247.719 77.944, 256.112 78.415 C 262.506 78.774, 268.949 81.478, 271.718 84.966 C 272.388 85.810, 272.951 86.162, 272.968 85.750 C 273.001 84.983, 274.430 86.072, 279.894 91.029 C 284.164 94.902, 283.560 113.702, 279.027 118 C 278.737 118.275, 278.379 119.175, 278.232 120 C 277.750 122.701, 273.707 130.937, 273.060 130.537 C 272.713 130.323, 272.429 131.011, 272.429 132.067 C 272.429 133.648, 273.098 133.334, 276.214 130.291 C 280.080 126.516, 280.458 126.652, 280.269 131.750 C 280.243 132.438, 280.594 133, 281.049 133 C 282.647 133, 282.794 148.648, 281.223 151.584 C 280.574 152.796, 280.515 154.169, 281.070 155.161 C 281.809 156.481, 281.177 156.970, 277.543 157.885 C 265.428 160.935, 261.358 157.145, 260.484 142 C 260.277 138.425, 260.049 133.475, 259.975 131 C 259.842 126.500, 259.842 126.500, 257.447 131.500 C 254.373 137.917, 253.507 143.844, 254.734 150.055 C 255.272 152.775, 255.327 155, 254.856 155 C 253.112 155, 254.072 156.785, 256.101 157.316 C 257.257 157.619, 257.905 158.345, 257.542 158.933 C 257.179 159.520, 257.359 160, 257.941 160 C 259.092 160, 259.448 170.219, 258.335 171.332 C 257.969 171.698, 257.539 173.229, 257.378 174.734 C 257.218 176.240, 256.614 177.629, 256.037 177.821 C 255.460 178.013, 255.242 178.582, 255.553 179.085 C 255.864 179.588, 255.716 180, 255.226 180 C 254.735 180, 254.333 180.675, 254.333 181.500 C 254.333 183.124, 255.222 183.444, 256.417 182.250 C 256.829 181.838, 257.643 181.500, 258.224 181.500 C 258.806 181.500, 259.781 180.600, 260.391 179.500 C 261.001 178.400, 262.044 177.151, 262.708 176.724 C 263.373 176.297, 263.662 175.284, 263.351 174.474 C 263.040 173.663, 263.279 173, 263.881 173 C 264.484 173, 264.910 172.213, 264.830 171.250 C 264.416 166.316, 264.765 166, 270.614 166 C 276.101 166, 284 162.906, 284 160.757 C 284 160.276, 284.360 160.104, 284.800 160.376 C 285.240 160.648, 286.120 160.037, 286.757 159.018 C 287.760 157.411, 287.509 157.025, 284.864 156.103 C 281.815 155.040, 281.815 155.040, 284.158 152.150 C 285.446 150.560, 286.832 149.450, 287.239 149.682 C 287.645 149.914, 287.709 149.406, 287.382 148.552 C 287.054 147.698, 287.250 147, 287.817 147 C 289.817 147, 288.444 131.454, 286.110 127.678 C 283.352 123.215, 283.447 120.700, 286.500 117.405 C 287.875 115.922, 289 114.360, 289 113.936 C 289 113.511, 289.232 112.339, 289.515 111.332 C 289.798 110.324, 289.329 110.850, 288.472 112.500 C 286.922 115.485, 286.917 115.486, 287.465 112.794 C 289.221 104.171, 290.195 103.502, 301 103.493 C 311.301 103.485, 316 101.764, 316 98 C 316 97.450, 316.477 97, 317.059 97 C 317.641 97, 317.850 96.566, 317.523 96.036 C 317.195 95.507, 317.806 94.194, 318.880 93.120 C 319.954 92.046, 320.571 90.904, 320.250 90.583 C 319.929 90.263, 320.218 90, 320.892 90 C 321.566 90, 321.864 89.588, 321.553 89.085 C 321.242 88.582, 321.426 88.020, 321.962 87.835 C 322.575 87.624, 322.589 86.944, 322.001 86 C 321.243 84.786, 319.774 85.773, 314.283 91.186 C 307.500 97.872, 307.500 97.872, 299.500 98.221 C 295.100 98.414, 290.825 98.780, 290 99.035 C 288.937 99.365, 288.486 98.737, 288.451 96.881 C 288.424 95.441, 287.626 93.079, 286.678 91.631 C 285.730 90.184, 285.161 89, 285.413 89 C 285.666 89, 284.664 87.731, 283.186 86.180 C 281.709 84.630, 280.050 83.392, 279.500 83.430 C 278.950 83.469, 278.613 82.938, 278.750 82.250 C 278.888 81.562, 278.663 81.089, 278.250 81.198 C 276.885 81.559, 273 79.882, 273 78.933 C 273 78.420, 272.663 78.053, 272.250 78.118 C 270.232 78.437, 268.014 77.878, 266.821 76.750 C 265.235 75.250, 263.461 75.185, 255.180 76.324 M 206.555 80.500 C 204.256 85.229, 203.334 95.651, 204.834 99.955 C 205.611 102.183, 205.592 103, 204.761 103 C 204.137 103, 204.835 104.262, 206.313 105.805 C 209.717 109.358, 209.806 113.985, 206.645 123.258 C 204.365 129.949, 204.363 130.003, 206.421 128.656 C 209.612 126.567, 212.964 121.078, 213.643 116.829 C 214.256 113, 214.256 113, 220.298 113 C 225.578 113, 227.074 112.527, 232.161 109.250 C 239.100 104.780, 239.424 103.956, 233.750 105.201 C 213.671 109.609, 210.337 107.210, 209.158 87.500 C 208.500 76.500, 208.500 76.500, 206.555 80.500 M 377 128.786 C 377 139.309, 363.625 142.680, 357.765 133.634 C 357.361 133.010, 357.024 132.812, 357.015 133.194 C 357.007 133.575, 354.889 132.954, 352.308 131.812 C 347.004 129.466, 336 127.805, 336 129.350 C 336 129.891, 335.739 130.072, 335.420 129.753 C 335.100 129.434, 333.248 130.934, 331.303 133.086 C 328.816 135.839, 326.948 137, 325.006 137 C 321.144 137, 319.423 139.617, 319.885 144.789 C 319.979 145.842, 320.258 145.842, 321.404 144.789 C 322.177 144.080, 322.739 143.088, 322.654 142.584 C 322.497 141.653, 329.141 139.807, 329.904 140.570 C 330.133 140.800, 330.954 140.083, 331.729 138.977 C 332.503 137.871, 333.509 137.196, 333.964 137.478 C 334.418 137.759, 335.071 137.258, 335.413 136.365 C 336.128 134.503, 343.749 134.976, 344.974 136.958 C 345.351 137.568, 346.411 137.779, 347.330 137.427 C 348.270 137.066, 349 137.270, 349 137.893 C 349 138.502, 349.337 138.911, 349.750 138.802 C 351.157 138.430, 355 140.132, 355 141.126 C 355 141.672, 355.450 141.840, 356 141.500 C 356.550 141.160, 357 141.385, 357 142 C 357 142.615, 357.419 142.859, 357.931 142.543 C 358.443 142.226, 359.144 142.425, 359.490 142.984 C 359.835 143.543, 360.991 144, 362.059 144 C 363.127 144, 364 144.360, 364 144.799 C 364 145.239, 365.469 145.427, 367.265 145.217 C 369.715 144.931, 371.215 145.469, 373.265 147.370 C 374.769 148.764, 376 149.607, 376 149.244 C 376 148.881, 378.025 150.571, 380.500 153 C 386.191 158.585, 387.179 178, 381.772 178 C 381.273 178, 381.151 178.900, 381.500 180 C 381.901 181.262, 381.680 182, 380.901 182 C 380.222 182, 379.930 182.263, 380.252 182.585 C 381.088 183.421, 378.994 189, 377.843 189 C 377.315 189, 377.138 189.414, 377.450 189.919 C 377.763 190.425, 377.452 191.448, 376.759 192.193 C 374.887 194.207, 374.792 196, 376.559 196 C 377.416 196, 377.870 195.599, 377.567 195.109 C 377.264 194.619, 378.700 192.697, 380.758 190.837 C 382.816 188.978, 384.528 187.242, 384.563 186.978 C 384.679 186.097, 388.443 180.508, 389.355 179.862 C 389.851 179.511, 389.943 178.718, 389.561 178.099 C 389.179 177.481, 389.478 175.743, 390.226 174.237 C 391.747 171.173, 390.474 158.374, 388.250 154.381 C 387.601 153.216, 387.344 151.989, 387.678 151.655 C 388.013 151.321, 387.434 150.735, 386.393 150.353 C 385.352 149.972, 383.279 148.654, 381.787 147.425 C 380.295 146.197, 378.495 144.952, 377.787 144.660 C 376.860 144.277, 377.103 143.597, 378.658 142.229 C 381.037 140.134, 383.231 133.672, 382.014 132.344 C 381.589 131.880, 380.704 129.819, 380.048 127.764 C 378.174 121.899, 377 122.293, 377 128.786 M 222 132.330 C 222 142.136, 211.166 146.988, 205.830 139.572 C 205.461 139.060, 204.381 138.526, 203.430 138.387 C 202.479 138.247, 201.380 137.615, 200.988 136.981 C 200.597 136.348, 199.987 135.876, 199.634 135.933 C 198.085 136.182, 194 134.702, 194 133.892 C 194 133.401, 193.662 133.053, 193.250 133.118 C 192.838 133.184, 192.275 133.157, 192 133.058 C 190.257 132.436, 180.999 132.647, 180.999 133.309 C 181 133.754, 180.550 133.840, 180 133.500 C 179.450 133.160, 179 133.359, 179 133.941 C 179 134.523, 178.506 135, 177.901 135 C 177.297 135, 175.552 136.339, 174.024 137.975 C 172.303 139.816, 170.081 141.038, 168.192 141.182 C 166.512 141.310, 165.359 141.772, 165.628 142.207 C 165.898 142.643, 165.732 143, 165.260 143 C 164.788 143, 164.590 144.610, 164.819 146.579 C 165.215 149.966, 165.298 150.037, 166.369 147.921 C 166.991 146.692, 168.625 145.514, 170 145.305 C 171.375 145.095, 173.351 144.791, 174.391 144.629 C 175.432 144.467, 176.826 143.591, 177.490 142.682 C 178.154 141.774, 178.991 141.324, 179.349 141.682 C 179.707 142.040, 180 141.782, 180 141.108 C 180 140.434, 180.450 140.160, 181 140.500 C 181.550 140.840, 182 140.641, 182 140.059 C 182 138.880, 185.274 138.608, 186.362 139.696 C 186.745 140.078, 187.607 140.502, 188.279 140.637 C 193.195 141.627, 194.533 142.098, 194.811 142.934 C 194.986 143.458, 195.849 143.611, 196.729 143.274 C 197.831 142.851, 198.090 143.045, 197.564 143.897 C 197.083 144.674, 197.301 145.024, 198.150 144.839 C 198.892 144.677, 201.750 145.644, 204.500 146.989 C 207.250 148.334, 211.001 149.450, 212.837 149.467 C 216.218 149.500, 225.075 155.916, 228.013 160.461 C 231.283 165.520, 228.954 179.322, 222.394 193.772 C 219.535 200.069, 219.554 199.898, 221.750 199.529 C 222.713 199.367, 223.398 198.763, 223.273 198.187 C 223.148 197.610, 224.386 196.012, 226.023 194.634 C 227.660 193.256, 229 191.650, 229 191.065 C 229 190.479, 229.348 190, 229.773 190 C 230.760 190, 234.382 183.320, 234.878 180.584 C 237.152 168.033, 235.355 159.423, 229.244 153.602 C 224.109 148.709, 223.253 148.080, 222.607 148.727 C 220.765 150.568, 222.380 147.070, 224.354 144.941 C 226.888 142.208, 227.235 131, 224.786 131 C 224.354 131, 224 130.352, 224 129.559 C 224 128.766, 223.550 127.840, 223 127.500 C 222.380 127.117, 222 128.953, 222 132.330 M 191 155.435 C 191 156.224, 190.511 158.137, 189.913 159.685 C 188.624 163.021, 188.161 172.982, 189.263 173.662 C 189.686 173.924, 189.774 174.557, 189.457 175.069 C 189.141 175.581, 189.385 176, 190 176 C 190.615 176, 190.859 176.419, 190.543 176.931 C 190.226 177.443, 190.335 178.089, 190.784 178.367 C 192.064 179.158, 192.243 187, 190.981 187 C 190.377 187, 190.160 187.450, 190.500 188 C 190.840 188.550, 190.737 189, 190.272 189 C 189.806 189, 189.358 189.900, 189.275 191 C 189.192 192.100, 189.506 193, 189.973 193 C 191.553 193, 196.110 186.730, 195.565 185.308 C 195.266 184.529, 195.466 184.170, 196.011 184.507 C 196.555 184.843, 197 184.416, 197 183.559 C 197 182.682, 197.850 182, 198.941 182 C 200.009 182, 201.134 181.592, 201.442 181.094 C 201.750 180.596, 202.902 180.423, 204.001 180.711 C 205.163 181.014, 206 180.741, 206 180.058 C 206 179.411, 206.470 179.172, 207.044 179.527 C 208.247 180.270, 213 177.437, 213 175.977 C 213 174.690, 207.297 174.711, 206.500 176 C 206.160 176.550, 205.009 177, 203.941 177 C 202.873 177, 202 176.550, 202 176 C 202 175.450, 201.079 175, 199.953 175 C 198.727 175, 197.225 173.801, 196.203 172.006 C 195.267 170.360, 194.225 169.010, 193.889 169.006 C 193.552 169.003, 193.505 167.808, 193.784 166.351 C 194.115 164.616, 193.919 163.932, 193.216 164.367 C 192.475 164.825, 192.318 163.319, 192.711 159.515 C 193.102 155.721, 192.924 154, 192.140 154 C 191.513 154, 191 154.646, 191 155.435 M 299.500 169 C 299.840 169.550, 299.615 170, 299 170 C 298.385 170, 298.160 170.450, 298.500 171 C 298.840 171.550, 298.656 172, 298.090 172 C 297.525 172, 297.322 172.675, 297.638 173.500 C 297.955 174.325, 297.808 175, 297.312 175 C 295.913 175, 295.688 190.549, 297.050 193.094 C 298.065 194.990, 298.003 195.215, 296.616 194.683 C 294.295 193.792, 294.593 194.439, 298.134 197.980 C 301.546 201.392, 301.839 207.458, 298.931 214.500 C 298.250 216.150, 297.580 217.950, 297.443 218.500 C 297.306 219.050, 296.877 220.287, 296.490 221.250 C 295.521 223.659, 296.138 223.467, 300.500 220 C 302.576 218.350, 303.918 217, 303.483 217 C 303.047 217, 303.403 216.213, 304.274 215.250 C 305.145 214.287, 305.890 213.162, 305.929 212.750 C 305.968 212.338, 306.050 211.662, 306.111 211.250 C 306.172 210.838, 306.135 209.453, 306.029 208.174 C 305.847 205.975, 306.133 205.861, 311.233 206.097 C 314.201 206.235, 317.162 206.018, 317.814 205.615 C 318.467 205.212, 319 205.203, 319 205.596 C 319 205.989, 319.900 205.495, 321 204.500 C 322.100 203.505, 323 203.032, 323 203.451 C 323 203.869, 324.350 202.766, 326 201 C 329.668 197.073, 329.698 196.787, 326.351 197.627 C 324.868 197.999, 323.945 197.897, 324.255 197.396 C 324.560 196.903, 323.727 196.500, 322.405 196.500 C 321.082 196.500, 320 196.886, 320 197.357 C 320 197.828, 319.325 197.955, 318.500 197.638 C 317.675 197.322, 317 197.499, 317 198.031 C 317 198.564, 315.425 199, 313.500 199 C 311.575 199, 310 198.523, 310 197.941 C 310 197.359, 309.583 197.140, 309.072 197.455 C 304.992 199.977, 301 189.051, 301 175.364 C 301 170.848, 300.590 168, 299.941 168 C 299.359 168, 299.160 168.450, 299.500 169 M 335.417 171.968 C 333.426 176.813, 333.259 187.161, 335.111 190.994 C 336.150 193.144, 337 195.359, 337 195.917 C 337 196.474, 337.939 197.432, 339.086 198.046 C 340.233 198.660, 340.915 199.419, 340.601 199.732 C 340.288 200.046, 340.723 200.808, 341.568 201.426 C 343.138 202.574, 344.817 215.622, 343.272 214.669 C 342.847 214.406, 342.433 215.315, 342.350 216.687 C 342.209 219.041, 337.156 225.490, 336.201 224.534 C 335.401 223.735, 325.818 229.093, 323.419 231.682 C 317.795 237.751, 313.755 253.201, 317.424 254.609 C 319.267 255.316, 322.243 253.229, 321.703 251.609 C 321.503 251.009, 321.958 249.899, 322.714 249.143 C 323.471 248.387, 323.922 247.267, 323.719 246.656 C 322.765 243.795, 329.117 238.407, 335.059 237.035 C 344.288 234.904, 351.184 228.306, 349.553 223.168 C 349.242 222.188, 349.384 219.267, 349.868 216.675 C 350.408 213.786, 350.384 211.737, 349.805 211.380 C 349.286 211.059, 348.981 209.142, 349.127 207.120 C 349.273 205.099, 349.053 202.894, 348.637 202.222 C 348.222 201.550, 348.160 200.550, 348.500 200 C 348.840 199.450, 348.615 199, 348 199 C 347.385 199, 347.160 198.550, 347.500 198 C 347.840 197.450, 347.593 197, 346.952 197 C 346.311 197, 346.045 196.325, 346.362 195.500 C 346.678 194.675, 346.598 194, 346.184 194 C 345.452 194, 341.388 187.749, 341.796 187.250 C 341.908 187.113, 341.964 186.887, 341.920 186.750 C 341.276 184.743, 341.428 174.147, 342.095 174.559 C 342.593 174.866, 343 174.443, 343 173.618 C 343 170.606, 336.553 169.203, 335.417 171.968 M 254.163 189.750 C 252.993 197.460, 253.259 209.402, 254.632 210.775 C 256.223 212.366, 255.986 221.675, 254.323 222.896 C 252.935 223.915, 252.982 225.826, 254.390 225.619 C 256.177 225.357, 259.061 222.395, 258.286 221.619 C 257.945 221.279, 258.218 221, 258.892 221 C 259.566 221, 259.861 220.584, 259.546 220.075 C 258.060 217.670, 261.083 214.500, 264.797 214.568 C 266.834 214.606, 269.063 214.213, 269.750 213.696 C 270.438 213.178, 271.007 213.148, 271.015 213.628 C 271.024 214.107, 271.365 213.974, 271.775 213.330 C 272.184 212.687, 273.179 212.012, 273.986 211.830 C 275.389 211.514, 278 209.534, 278 208.786 C 278 208.589, 277.100 208.429, 276 208.429 C 274.900 208.429, 274 208.795, 274 209.243 C 274 209.842, 262.956 209.704, 261.270 209.084 C 260.392 208.761, 257.036 200.751, 257.478 200.035 C 257.783 199.542, 257.575 198.856, 257.016 198.510 C 256.457 198.165, 256 195.659, 256 192.941 C 256 188.242, 254.727 186.032, 254.163 189.750" stroke="none" fill="#fbc304" fill-rule="evenodd"/></svg>